<svg xmlns="http://www.w3.org/2000/svg" viewBox="0 0 56 56" shape-rendering="crispEdges">
<rect x="24" y="0" width="8" height="8" fill="#BEE3F8"/>
<rect x="24" y="8" width="8" height="8" fill="#BEE3F8"/>
<rect x="8" y="16" width="8" height="8" fill="#BEE3F8"/>
<rect x="16" y="16" width="8" height="8" fill="#BEE3F8"/>
<rect x="24" y="16" width="8" height="8" fill="#BEE3F8"/>
<rect x="32" y="16" width="8" height="8" fill="#BEE3F8"/>
<rect x="40" y="16" width="8" height="8" fill="#BEE3F8"/>
<rect x="0" y="24" width="8" height="8" fill="#BEE3F8"/>
<rect x="8" y="24" width="8" height="8" fill="#BEE3F8"/>
<rect x="16" y="24" width="8" height="8" fill="#BEE3F8"/>
<rect x="24" y="24" width="8" height="8" fill="#BEE3F8"/>
<rect x="32" y="24" width="8" height="8" fill="#BEE3F8"/>
<rect x="40" y="24" width="8" height="8" fill="#BEE3F8"/>
<rect x="48" y="24" width="8" height="8" fill="#BEE3F8"/>
<rect x="8" y="32" width="8" height="8" fill="#BEE3F8"/>
<rect x="16" y="32" width="8" height="8" fill="#BEE3F8"/>
<rect x="24" y="32" width="8" height="8" fill="#BEE3F8"/>
<rect x="32" y="32" width="8" height="8" fill="#BEE3F8"/>
<rect x="40" y="32" width="8" height="8" fill="#BEE3F8"/>
<rect x="16" y="40" width="8" height="8" fill="#BEE3F8"/>
<rect x="32" y="40" width="8" height="8" fill="#BEE3F8"/>
<rect x="8" y="48" width="8" height="8" fill="#BEE3F8"/>
<rect x="40" y="48" width="8" height="8" fill="#BEE3F8"/>
</svg>
